<svg class="svg-fill-black" viewBox="0 0 36 32" xmlns="http://www.w3.org/2000/svg"><path d="M30.824 1.453c-3.713-2.316-8.603-1.77-12.963.972-4.347-2.74-9.239-3.288-12.948-.972C-.955 5.12-1.667 14.564 3.32 22.546c3.677 5.887 9.428 9.335 14.548 9.271 5.119.064 10.87-3.384 14.547-9.27C37.4 14.563 36.692 5.12 30.824 1.452zM6.02 20.863a19.112 19.112 0 01-2.303-5.273 15.067 15.067 0 01-.5-4.97C3.44 7.673 4.64 5.375 6.598 4.15c1.957-1.224 4.544-1.295 7.299-.203.419.169.829.358 1.228.568a22.496 22.496 0 00-3.956 4.754C8.14 14.116 7.215 19.511 8.272 23.81a19.723 19.723 0 01-2.253-2.947zm26.003-5.273a19.158 19.158 0 01-2.302 5.272 19.733 19.733 0 01-2.254 2.954c.946-3.855.303-8.576-2.014-13.005a.583.583 0 00-.837-.228l-7.225 4.515a.59.59 0 00-.188.813l1.06 1.695a.59.59 0 00.814.188l4.683-2.925c.151.454.303.901.416 1.363.442 1.617.611 3.297.5 4.97-.223 2.95-1.424 5.247-3.38 6.471a6.607 6.607 0 01-3.35.97h-.15a6.599 6.599 0 01-3.35-.97c-1.958-1.224-3.159-3.521-3.381-6.472-.11-1.672.058-3.352.5-4.969a19.671 19.671 0 016.03-9.65 15.108 15.108 0 014.241-2.629c2.748-1.092 5.34-1.02 7.298.203 1.958 1.224 3.157 3.522 3.38 6.47a15.105 15.105 0 01-.49 4.964zM27.89 30.386v-.21c0-.015.005-.03.015-.04a.048.048 0 01.038-.015h1.342c.014-.001.028.004.038.015.01.01.016.025.015.04v.21a.051.051 0 01-.015.04.048.048 0 01-.038.014h-.49v1.322a.05.05 0 01-.017.04.051.051 0 01-.038.017h-.253a.055.055 0 01-.038-.017.06.06 0 01-.015-.04V30.44h-.49a.048.048 0 01-.039-.015.051.051 0 01-.015-.04zm2.345-.217l.374.848.375-.848a.073.073 0 01.03-.036.08.08 0 01.05-.012h.4a.051.051 0 01.053.053v1.592a.056.056 0 01-.013.037.05.05 0 01-.037.016h-.24a.055.055 0 01-.038-.016.056.056 0 01-.015-.037v-1.203l-.393.874a.09.09 0 01-.03.04.086.086 0 01-.05.013h-.194a.085.085 0 01-.048-.012.09.09 0 01-.03-.041l-.393-.874v1.203a.05.05 0 01-.015.037.053.053 0 01-.036.016h-.243a.05.05 0 01-.036-.016.056.056 0 01-.015-.037v-1.592a.05.05 0 01.017-.038.047.047 0 01.036-.015h.413a.083.083 0 01.049.012.071.071 0 01.029.036z"></path></svg>