<svg width="375" height="106" viewBox="0 0 375 106" fill="none" xmlns="http://www.w3.org/2000/svg">
<path d="M294.243 9.52307H261.552V106H294.243V9.52307Z" fill="#658280"/>
<path d="M296.672 10.0947H259.054V11.0474H296.672V10.0947Z" fill="#658280"/>
<path d="M295.631 23.623H260.095V24.5757H295.631V23.623Z" fill="#658280"/>
<path d="M295.631 36.7705H260.095V37.7232H295.631V36.7705Z" fill="#658280"/>
<path d="M295.631 49.8542H260.095V50.807H295.631V49.8542Z" fill="#658280"/>
<path d="M295.631 63.0015H260.095V63.9541H295.631V63.0015Z" fill="#658280"/>
<path d="M295.631 76.1488H260.095V77.1015H295.631V76.1488Z" fill="#658280"/>
<path d="M295.631 89.2325H260.095V90.1853H295.631V89.2325Z" fill="#658280"/>
<path d="M297.921 7.42725H257.874V10.0948H297.921V7.42725Z" fill="#658280"/>
<path opacity="0.29" d="M267.868 14.2231H264.468V21.9083H267.868V14.2231Z" fill="#658280"/>
<path d="M275.503 14.2231H272.102V21.9083H275.503V14.2231Z" fill="#658280"/>
<path d="M283.068 14.2231H279.667V21.9083H283.068V14.2231Z" fill="#658280"/>
<path d="M290.703 14.2231H287.302V21.9083H290.703V14.2231Z" fill="#658280"/>
<path d="M267.868 26.7988H264.468V34.484H267.868V26.7988Z" fill="#658280"/>
<path opacity="0.29" d="M275.503 26.7988H272.102V34.484H275.503V26.7988Z" fill="#658280"/>
<path d="M283.068 26.7988H279.667V34.484H283.068V26.7988Z" fill="#658280"/>
<path d="M290.703 26.7988H287.302V34.484H290.703V26.7988Z" fill="#658280"/>
<path d="M267.868 39.946H264.468V47.6312H267.868V39.946Z" fill="#658280"/>
<path d="M275.503 39.946H272.102V47.6312H275.503V39.946Z" fill="#658280"/>
<path d="M283.068 39.946H279.667V47.6312H283.068V39.946Z" fill="#658280"/>
<path opacity="0.29" d="M290.703 39.946H287.302V47.6312H290.703V39.946Z" fill="#658280"/>
<path d="M267.868 53.0934H264.468V60.7785H267.868V53.0934Z" fill="#658280"/>
<path opacity="0.29" d="M275.503 53.0934H272.102V60.7785H275.503V53.0934Z" fill="#658280"/>
<path opacity="0.29" d="M283.068 53.0934H279.667V60.7785H283.068V53.0934Z" fill="#658280"/>
<path d="M290.703 53.0934H287.302V60.7785H290.703V53.0934Z" fill="#658280"/>
<path opacity="0.29" d="M267.868 66.1772H264.468V73.8624H267.868V66.1772Z" fill="#658280"/>
<path d="M275.503 66.1772H272.102V73.8624H275.503V66.1772Z" fill="#658280"/>
<path d="M283.068 66.1772H279.667V73.8624H283.068V66.1772Z" fill="#658280"/>
<path d="M290.703 66.1772H287.302V73.8624H290.703V66.1772Z" fill="#658280"/>
<path d="M267.868 79.3245H264.468V87.0096H267.868V79.3245Z" fill="#658280"/>
<path d="M275.503 79.3245H272.102V87.0096H275.503V79.3245Z" fill="#658280"/>
<path opacity="0.29" d="M283.068 79.3245H279.667V87.0096H283.068V79.3245Z" fill="#658280"/>
<path d="M290.703 79.3245H287.302V87.0096H290.703V79.3245Z" fill="#658280"/>
<path d="M267.868 92.4718H264.468V100.157H267.868V92.4718Z" fill="#658280"/>
<path opacity="0.29" d="M275.503 92.4718H272.102V100.157H275.503V92.4718Z" fill="#658280"/>
<path d="M283.068 92.4718H279.667V100.157H283.068V92.4718Z" fill="#658280"/>
<path opacity="0.29" d="M290.703 92.4718H287.302V100.157H290.703V92.4718Z" fill="#658280"/>
<path d="M274.67 3.74329H263.565V8.76084H274.67V3.74329Z" fill="#658280"/>
<path d="M275.503 3.61633H262.871V4.442H275.503V3.61633Z" fill="#658280"/>
<path d="M214.634 106H171.116V14.35L214.634 4.56897V106Z" fill="#658280"/>
<path d="M172.99 12.6987H169.173V105.937H172.99V12.6987Z" fill="#658280"/>
<path d="M183.887 10.0946H180.07V106H183.887V10.0946Z" fill="#658280"/>
<path d="M194.783 7.36365H190.966V106H194.783V7.36365Z" fill="#658280"/>
<path d="M205.681 5.14062H201.863V106H205.681V5.14062Z" fill="#658280"/>
<path d="M216.577 2.79065H212.76V106H216.577V2.79065Z" fill="#658280"/>
<path opacity="0.29" d="M179.098 20.511H174.031V27.6245H179.098V20.511Z" fill="#658280"/>
<path opacity="0.29" d="M189.925 20.511H184.859V27.6245H189.925V20.511Z" fill="#658280"/>
<path d="M200.822 20.511H195.755V27.6245H200.822V20.511Z" fill="#658280"/>
<path opacity="0.29" d="M211.719 20.511H206.652V27.6245H211.719V20.511Z" fill="#658280"/>
<path d="M179.098 32.896H174.031V40.0095H179.098V32.896Z" fill="#658280"/>
<path d="M189.925 32.896H184.859V40.0095H189.925V32.896Z" fill="#658280"/>
<path opacity="0.29" d="M200.822 32.896H195.755V40.0095H200.822V32.896Z" fill="#658280"/>
<path opacity="0.29" d="M211.719 32.896H206.652V40.0095H211.719V32.896Z" fill="#658280"/>
<path opacity="0.29" d="M179.098 45.2177H174.031V52.3311H179.098V45.2177Z" fill="#658280"/>
<path opacity="0.29" d="M189.925 45.2177H184.859V52.3311H189.925V45.2177Z" fill="#658280"/>
<path opacity="0.29" d="M200.822 45.2177H195.755V52.3311H200.822V45.2177Z" fill="#658280"/>
<path d="M211.719 45.2177H206.652V52.3311H211.719V45.2177Z" fill="#658280"/>
<path opacity="0.29" d="M179.098 57.5393H174.031V64.6528H179.098V57.5393Z" fill="#658280"/>
<path d="M189.925 57.5393H184.859V64.6528H189.925V57.5393Z" fill="#658280"/>
<path opacity="0.29" d="M200.822 57.5393H195.755V64.6528H200.822V57.5393Z" fill="#658280"/>
<path opacity="0.29" d="M211.719 57.5393H206.652V64.6528H211.719V57.5393Z" fill="#658280"/>
<path opacity="0.29" d="M179.098 69.8608H174.031V76.9743H179.098V69.8608Z" fill="#658280"/>
<path opacity="0.29" d="M189.925 69.8608H184.859V76.9743H189.925V69.8608Z" fill="#658280"/>
<path d="M200.822 69.8608H195.755V76.9743H200.822V69.8608Z" fill="#658280"/>
<path opacity="0.29" d="M211.719 69.8608H206.652V76.9743H211.719V69.8608Z" fill="#658280"/>
<path d="M179.098 82.1825H174.031V89.296H179.098V82.1825Z" fill="#658280"/>
<path d="M189.925 82.1825H184.859V89.296H189.925V82.1825Z" fill="#658280"/>
<path opacity="0.29" d="M200.822 82.1825H195.755V89.296H200.822V82.1825Z" fill="#658280"/>
<path opacity="0.29" d="M211.719 82.1825H206.652V89.296H211.719V82.1825Z" fill="#658280"/>
<path opacity="0.29" d="M179.098 94.5676H174.031V101.681H179.098V94.5676Z" fill="#658280"/>
<path d="M189.925 94.5676H184.859V101.681H189.925V94.5676Z" fill="#658280"/>
<path opacity="0.29" d="M200.822 94.5676H195.755V101.681H200.822V94.5676Z" fill="#658280"/>
<path d="M211.719 94.5676H206.652V101.681H211.719V94.5676Z" fill="#658280"/>
<path d="M46.8099 18.7325V19.6852H45.7688V22.3528H64.0226V106H34.1086V26.7352V22.3528V19.6852H32.9981V18.7325H46.8099Z" fill="#658280"/>
<path d="M123.365 56.7136H97.7537V106H123.365V56.7136Z" fill="#658280"/>
<path d="M6.90119 45.4083H-13.9207V106H6.90119V45.4083Z" fill="#658280"/>
<path d="M25.5022 57.9839H2.80646V105.937H25.5022V57.9839Z" fill="#658280"/>
<path d="M2.80633 42.9312H-6.42468V50.1717H2.80633V42.9312Z" fill="#658280"/>
<path d="M28.5561 57.2217H4.33331V59.0001H28.5561V57.2217Z" fill="#658280"/>
<path d="M48.5449 78.5623H23.0728V105.937H48.5449V78.5623Z" fill="#658280"/>
<path d="M105.597 98.0609H55.6243V105.937H105.597V98.0609Z" fill="#658280"/>
<path d="M194.159 98.0609H144.187V105.937H194.159V98.0609Z" fill="#658280"/>
<path d="M103.653 74.8784H84.6358L76.5847 101.999H103.653V74.8784Z" fill="#658280"/>
<path d="M112.954 35.4366H112.399V65.542H112.954V35.4366Z" fill="#658280"/>
<path d="M115.73 45.5988H115.036V63.3825H115.73V45.5988Z" fill="#658280"/>
<path d="M120.866 48.7744H111.288V57.5393H120.866V48.7744Z" fill="#658280"/>
<path d="M122.324 48.0758H109.622V48.838H122.324V48.0758Z" fill="#658280"/>
<path d="M149.739 80.5311H118.715V105.937H149.739V80.5311Z" fill="#658280"/>
<path d="M163.759 52.5853H143.84V101.618H163.759V52.5853Z" fill="#658280"/>
<path d="M253.571 61.7947H221.713V106H253.571V61.7947Z" fill="#658280"/>
<path d="M248.018 89.6771H211.719V105.937H248.018V89.6771Z" fill="#658280"/>
<path d="M275.433 100.157H251.835V106H275.433V100.157Z" fill="#658280"/>
<path d="M326.586 89.6771H288.204V105.937H326.586V89.6771Z" fill="#658280"/>
<path d="M303.514 105.979H351.335V47.0388L303.514 47.0388V105.979Z" fill="#658280"/>
<path d="M302.292 47.0945L354.138 47.0945V44.808L302.292 44.808V47.0945Z" fill="#658280"/>
<path d="M328.225 50.6093H349.255V38.6687H328.225V50.6093Z" fill="#658280"/>
<path d="M317.8 45.9287H321.34V38.6882H317.8V45.9287Z" fill="#658280"/>
<path d="M310.416 45.9287H314.303V38.6882H310.416V45.9287Z" fill="#658280"/>
<path d="M387.941 53.157H368.646V106H387.941V53.157Z" fill="#658280"/>
<path d="M378.293 106H351.086V77.7366L374.059 87.0095L378.293 106Z" fill="#658280"/>
</svg>
