<svg width="375" height="164" viewBox="0 0 375 164" fill="none" xmlns="http://www.w3.org/2000/svg">
<path d="M79.0837 61.2905H51.0436V163.42H79.0837V61.2905Z" fill="#B5C3C2"/>
<path d="M74.5025 53.9865H55.6241V96.9216H74.5025V53.9865Z" fill="#B5C3C2"/>
<path d="M70.269 49.35H59.7887V73.1675H70.269V49.35Z" fill="#B5C3C2"/>
<path d="M68.6034 61.5447H61.4546V45.3488H64.092H66.5906H68.6034V61.5447Z" fill="#B5C3C2"/>
<path d="M64.5776 54.4947H63.8141V38.2987H64.0917H64.3693H64.5776V54.4947Z" fill="#B5C3C2"/>
<path d="M66.3128 48.9055H65.5493V32.646H65.8269H66.1046H66.3128V48.9055Z" fill="#B5C3C2"/>
<path d="M79.847 61.0365H50.28V62.1162H79.847V61.0365Z" fill="#B5C3C2"/>
<path d="M75.1967 53.4149H54.9301V54.4311H75.1967V53.4149Z" fill="#B5C3C2"/>
<path d="M70.6856 48.9054H59.0253V49.7311H70.6856V48.9054Z" fill="#B5C3C2"/>
<path opacity="0.29" d="M58.2616 55.7014H57.3593V60.2109H58.2616V55.7014Z" fill="#B5C3C2"/>
<path opacity="0.29" d="M60.691 55.7014H59.7887V60.2109H60.691V55.7014Z" fill="#B5C3C2"/>
<path opacity="0.29" d="M63.12 55.7014H62.2178V60.2109H63.12V55.7014Z" fill="#B5C3C2"/>
<path opacity="0.29" d="M65.5493 55.7014H64.647V60.2109H65.5493V55.7014Z" fill="#B5C3C2"/>
<path opacity="0.29" d="M67.9784 55.7014H67.0761V60.2109H67.9784V55.7014Z" fill="#B5C3C2"/>
<path opacity="0.29" d="M70.4077 55.7014H69.5054V60.2109H70.4077V55.7014Z" fill="#B5C3C2"/>
<path opacity="0.29" d="M72.837 55.7014H71.9347V60.2109H72.837V55.7014Z" fill="#B5C3C2"/>
<path d="M55.6245 65.3555H53.4728V70.6906H55.6245V65.3555Z" fill="#B5C3C2"/>
<path opacity="0.29" d="M59.8581 65.3555H57.7065V70.6906H59.8581V65.3555Z" fill="#B5C3C2"/>
<path d="M64.0224 65.3555H61.8708V70.6906H64.0224V65.3555Z" fill="#B5C3C2"/>
<path d="M68.2562 65.3555H66.1046V70.6906H68.2562V65.3555Z" fill="#B5C3C2"/>
<path d="M72.4206 65.3555H70.269V70.6906H72.4206V65.3555Z" fill="#B5C3C2"/>
<path d="M76.6541 65.3555H74.5025V70.6906H76.6541V65.3555Z" fill="#B5C3C2"/>
<path d="M55.6245 73.6757H53.4728V79.0108H55.6245V73.6757Z" fill="#B5C3C2"/>
<path d="M59.8581 73.6757H57.7065V79.0108H59.8581V73.6757Z" fill="#B5C3C2"/>
<path d="M64.0224 73.6757H61.8708V79.0108H64.0224V73.6757Z" fill="#B5C3C2"/>
<path opacity="0.29" d="M68.2562 73.6757H66.1046V79.0108H68.2562V73.6757Z" fill="#B5C3C2"/>
<path d="M72.4206 73.6757H70.269V79.0108H72.4206V73.6757Z" fill="#B5C3C2"/>
<path d="M76.6541 73.6757H74.5025V79.0108H76.6541V73.6757Z" fill="#B5C3C2"/>
<path d="M55.6245 81.996H53.4728V87.3311H55.6245V81.996Z" fill="#B5C3C2"/>
<path d="M59.8581 81.996H57.7065V87.3311H59.8581V81.996Z" fill="#B5C3C2"/>
<path d="M64.0224 81.996H61.8708V87.3311H64.0224V81.996Z" fill="#B5C3C2"/>
<path d="M68.2562 81.996H66.1046V87.3311H68.2562V81.996Z" fill="#B5C3C2"/>
<path opacity="0.29" d="M72.4206 81.996H70.269V87.3311H72.4206V81.996Z" fill="#B5C3C2"/>
<path opacity="0.29" d="M76.6541 81.996H74.5025V87.3311H76.6541V81.996Z" fill="#B5C3C2"/>
<path opacity="0.29" d="M55.6245 90.3163H53.4728V95.6514H55.6245V90.3163Z" fill="#B5C3C2"/>
<path d="M59.8581 90.3163H57.7065V95.6514H59.8581V90.3163Z" fill="#B5C3C2"/>
<path d="M64.0224 90.3163H61.8708V95.6514H64.0224V90.3163Z" fill="#B5C3C2"/>
<path d="M68.2562 90.3163H66.1046V95.6514H68.2562V90.3163Z" fill="#B5C3C2"/>
<path d="M72.4206 90.3163H70.269V95.6514H72.4206V90.3163Z" fill="#B5C3C2"/>
<path d="M76.6541 90.3163H74.5025V95.6514H76.6541V90.3163Z" fill="#B5C3C2"/>
<path d="M55.6245 98.6366H53.4728V103.972H55.6245V98.6366Z" fill="#B5C3C2"/>
<path opacity="0.29" d="M59.8581 98.6366H57.7065V103.972H59.8581V98.6366Z" fill="#B5C3C2"/>
<path d="M64.0224 98.6366H61.8708V103.972H64.0224V98.6366Z" fill="#B5C3C2"/>
<path opacity="0.29" d="M68.2562 98.6366H66.1046V103.972H68.2562V98.6366Z" fill="#B5C3C2"/>
<path d="M72.4206 98.6366H70.269V103.972H72.4206V98.6366Z" fill="#B5C3C2"/>
<path d="M76.6541 98.6366H74.5025V103.972H76.6541V98.6366Z" fill="#B5C3C2"/>
<path d="M55.6245 106.957H53.4728V112.292H55.6245V106.957Z" fill="#B5C3C2"/>
<path d="M59.8581 106.957H57.7065V112.292H59.8581V106.957Z" fill="#B5C3C2"/>
<path d="M64.0224 106.957H61.8708V112.292H64.0224V106.957Z" fill="#B5C3C2"/>
<path d="M68.2562 106.957H66.1046V112.292H68.2562V106.957Z" fill="#B5C3C2"/>
<path d="M72.4206 106.957H70.269V112.292H72.4206V106.957Z" fill="#B5C3C2"/>
<path opacity="0.29" d="M76.6541 106.957H74.5025V112.292H76.6541V106.957Z" fill="#B5C3C2"/>
<path d="M55.6245 115.277H53.4728V120.612H55.6245V115.277Z" fill="#B5C3C2"/>
<path opacity="0.29" d="M59.8581 115.277H57.7065V120.612H59.8581V115.277Z" fill="#B5C3C2"/>
<path opacity="0.29" d="M64.0224 115.277H61.8708V120.612H64.0224V115.277Z" fill="#B5C3C2"/>
<path d="M68.2562 115.277H66.1046V120.612H68.2562V115.277Z" fill="#B5C3C2"/>
<path d="M72.4206 115.277H70.269V120.612H72.4206V115.277Z" fill="#B5C3C2"/>
<path d="M76.6541 115.277H74.5025V120.612H76.6541V115.277Z" fill="#B5C3C2"/>
<path d="M55.6245 123.597H53.4728V128.933H55.6245V123.597Z" fill="#B5C3C2"/>
<path d="M59.8581 123.597H57.7065V128.933H59.8581V123.597Z" fill="#B5C3C2"/>
<path d="M64.0224 123.597H61.8708V128.933H64.0224V123.597Z" fill="#B5C3C2"/>
<path d="M68.2562 123.597H66.1046V128.933H68.2562V123.597Z" fill="#B5C3C2"/>
<path opacity="0.29" d="M72.4206 123.597H70.269V128.933H72.4206V123.597Z" fill="#B5C3C2"/>
<path d="M76.6541 123.597H74.5025V128.933H76.6541V123.597Z" fill="#B5C3C2"/>
<path d="M55.6245 131.918H53.4728V137.253H55.6245V131.918Z" fill="#B5C3C2"/>
<path opacity="0.29" d="M59.8581 131.918H57.7065V137.253H59.8581V131.918Z" fill="#B5C3C2"/>
<path d="M64.0224 131.918H61.8708V137.253H64.0224V131.918Z" fill="#B5C3C2"/>
<path d="M68.2562 131.918H66.1046V137.253H68.2562V131.918Z" fill="#B5C3C2"/>
<path d="M72.4206 131.918H70.269V137.253H72.4206V131.918Z" fill="#B5C3C2"/>
<path d="M76.6541 131.918H74.5025V137.253H76.6541V131.918Z" fill="#B5C3C2"/>
<path d="M55.6245 140.238H53.4728V145.573H55.6245V140.238Z" fill="#B5C3C2"/>
<path d="M59.8581 140.238H57.7065V145.573H59.8581V140.238Z" fill="#B5C3C2"/>
<path d="M64.0224 140.238H61.8708V145.573H64.0224V140.238Z" fill="#B5C3C2"/>
<path opacity="0.29" d="M68.2562 140.238H66.1046V145.573H68.2562V140.238Z" fill="#B5C3C2"/>
<path d="M72.4206 140.238H70.269V145.573H72.4206V140.238Z" fill="#B5C3C2"/>
<path opacity="0.29" d="M76.6541 140.238H74.5025V145.573H76.6541V140.238Z" fill="#B5C3C2"/>
<path opacity="0.29" d="M55.6245 148.558H53.4728V153.893H55.6245V148.558Z" fill="#B5C3C2"/>
<path d="M59.8581 148.558H57.7065V153.893H59.8581V148.558Z" fill="#B5C3C2"/>
<path opacity="0.29" d="M64.0224 148.558H61.8708V153.893H64.0224V148.558Z" fill="#B5C3C2"/>
<path d="M68.2562 148.558H66.1046V153.893H68.2562V148.558Z" fill="#B5C3C2"/>
<path d="M72.4206 148.558H70.269V153.893H72.4206V148.558Z" fill="#B5C3C2"/>
<path d="M76.6541 148.558H74.5025V153.893H76.6541V148.558Z" fill="#B5C3C2"/>
<path d="M14.6744 65.1649H-30.3702V151.226H14.6744V65.1649Z" fill="#B5C3C2"/>
<path d="M15.9238 63.7041H-31.6888V66.1176H15.9238V63.7041Z" fill="#B5C3C2"/>
<path d="M13.1475 60.5919H-28.9126V72.1514H13.1475V60.5919Z" fill="#B5C3C2"/>
<path d="M387.941 157.768H338.593L332.416 31.2487L387.941 41.7919V157.768Z" fill="#B5C3C2"/>
<path d="M172.643 85.4892V43.2527H164.939V31.8838H162.162V15.3068H146.962V3.04865H145.574V15.3068H142.59V0H141.271V15.3068H131.624V43.2527H126.626V85.4892H122.393V162.531H175.697V85.4892H172.643Z" fill="#B5C3C2"/>
</svg>
