<svg width="375" height="159" viewBox="0 0 375 159" fill="none" xmlns="http://www.w3.org/2000/svg">
<path d="M504.404 138.739H-114.56V159H504.404V138.739Z" fill="#95A9A7"/>
<path d="M232.194 48.3595V27.146H223.865V19.0798H219.353V12.3473H217.757V0.724365H217.341V12.3473H215.814V19.0798H211.302V27.146H202.974V48.3595H201.238V86.8487H188.398V130.737H201.238H214.148H233.859V48.3595H232.194Z" fill="#95A9A7"/>
<path d="M280.362 72.6852H239.828V73.3838H241.633V136.135H278.557V73.3838H280.362V72.6852Z" fill="#95A9A7"/>
<path d="M95.394 88.373H59.4417V140.645H95.394V88.373Z" fill="#95A9A7"/>
<path d="M53.9583 115.112H-7.88257V140.645H53.9583V115.112Z" fill="#95A9A7"/>
<path d="M38.8973 58.1406H25.2937V120.765H38.8973V58.1406Z" fill="#95A9A7"/>
<path d="M28.9724 41.4365H28.2783V75.4798H28.9724V41.4365Z" fill="#95A9A7"/>
<path d="M31.2629 44.0406H30.5688V78.0839H31.2629V44.0406Z" fill="#95A9A7"/>
<path d="M34.6636 54.2662H26.3349V62.65H34.6636V54.2662Z" fill="#95A9A7"/>
<path d="M75.266 97.7095H51.5985V140.645H75.266V97.7095Z" fill="#95A9A7"/>
<path d="M145.574 52.2974H101.224V140.645H145.574V52.2974Z" fill="#95A9A7"/>
<path d="M141.271 49.2488H105.597V63.9839H141.271V49.2488Z" fill="#95A9A7"/>
<path d="M148.975 54.1392H97.7535V55.1554H148.975V54.1392Z" fill="#95A9A7"/>
<path d="M114.064 95.9946H93.1731V140.645H114.064V95.9946Z" fill="#95A9A7"/>
<path d="M0.307568 79.481H-51.5388V81.7674H0.307568V79.481Z" fill="#95A9A7"/>
<path d="M390.925 120.765H141.202V140.645H390.925V120.765Z" fill="#95A9A7"/>
<path d="M371.006 65.8257C369.409 65.8257 368.16 66.9054 368.021 68.3662L364.482 68.2392C364.482 67.9216 364.482 67.6041 364.482 67.2865C364.482 63.2852 363.718 59.4108 362.261 55.727L365.176 54.7108C365.662 55.6635 366.703 56.3622 367.952 56.3622C369.618 56.3622 370.936 55.1554 370.936 53.6311C370.936 52.1068 369.618 50.9 367.952 50.9C366.286 50.9 364.967 52.1068 364.967 53.6311C364.967 53.8851 365.037 54.2027 365.106 54.4568L362.191 55.473C360.525 51.3446 357.957 47.5973 354.626 44.2946L356.916 42.3257C357.472 42.7703 358.166 43.0878 358.999 43.0878C360.664 43.0878 361.983 41.8811 361.983 40.3568C361.983 38.8324 360.664 37.6257 358.999 37.6257C357.333 37.6257 356.014 38.8324 356.014 40.3568C356.014 41.0554 356.292 41.627 356.708 42.1351L354.418 44.1041C354.21 43.85 353.932 43.6595 353.724 43.4054C350.253 40.2297 346.228 37.7527 341.786 36.1014L343.035 33.3068C343.313 33.3703 343.66 33.4338 343.937 33.4338C345.603 33.4338 346.922 32.227 346.922 30.7027C346.922 29.1784 345.603 27.9716 343.937 27.9716C342.272 27.9716 340.953 29.1784 340.953 30.7027C340.953 31.846 341.716 32.7987 342.758 33.2432L341.508 36.0378C337.552 34.577 333.318 33.7514 328.946 33.6243L329.084 29.75H329.154C330.82 29.75 332.138 28.5432 332.138 27.0189C332.138 25.4946 330.82 24.2878 329.154 24.2878C327.488 24.2878 326.169 25.4946 326.169 27.0189C326.169 28.4162 327.28 29.5595 328.737 29.75L328.599 33.6243C328.252 33.6243 327.905 33.6243 327.558 33.6243C323.393 33.6243 319.298 34.2595 315.411 35.4662L314.232 32.3541C315.342 31.973 316.106 30.9568 316.106 29.8135C316.106 28.2892 314.787 27.0824 313.121 27.0824C311.455 27.0824 310.137 28.2892 310.137 29.8135C310.137 31.3378 311.455 32.5446 313.121 32.5446C313.399 32.5446 313.676 32.4811 313.954 32.4176L315.134 35.5297C310.484 37.0541 306.111 39.4676 302.433 42.6433L300.212 40.4838C300.697 39.9757 300.975 39.3405 300.975 38.6419C300.975 37.1176 299.656 35.9108 297.991 35.9108C296.325 35.9108 295.006 37.1176 295.006 38.6419C295.006 40.1662 296.325 41.373 297.991 41.373C298.754 41.373 299.448 41.1189 299.934 40.6743L302.155 42.8338C301.877 43.0243 301.669 43.2784 301.391 43.4689C298.268 46.327 295.839 49.5662 294.034 53.0595L291.258 51.8527C291.328 51.5987 291.397 51.2811 291.397 50.9635C291.397 49.4392 290.078 48.2324 288.412 48.2324C286.747 48.2324 285.428 49.4392 285.428 50.9635C285.428 52.4878 286.747 53.6946 288.412 53.6946C289.592 53.6946 290.633 53.0595 291.119 52.1068L293.896 53.25C291.883 57.2514 290.772 61.5703 290.633 66.0797L287.024 65.9527C286.955 64.4919 285.636 63.2851 284.04 63.2851C282.374 63.2851 281.055 64.4919 281.055 66.0162C281.055 67.5406 282.374 68.7473 284.04 68.7473C285.636 68.7473 286.886 67.6676 287.024 66.2068L290.633 66.3338C290.633 66.6514 290.633 66.9689 290.633 67.2865C290.633 71.2879 291.397 75.1622 292.854 78.846L289.939 79.8622C289.454 78.9095 288.412 78.2108 287.163 78.2108C285.497 78.2108 284.179 79.4176 284.179 80.9419C284.179 82.4662 285.497 83.673 287.163 83.673C288.829 83.673 290.148 82.4662 290.148 80.9419C290.148 80.6879 290.078 80.3703 290.009 80.1162L292.924 79.1C294.59 83.2284 297.158 86.9757 300.489 90.2784L298.199 92.2473C297.644 91.8027 296.949 91.4852 296.117 91.4852C294.451 91.4852 293.132 92.6919 293.132 94.2162C293.132 95.7406 294.451 96.9473 296.117 96.9473C297.782 96.9473 299.101 95.7406 299.101 94.2162C299.101 93.5176 298.823 92.946 298.407 92.4379L300.697 90.4689C300.906 90.723 301.183 90.9135 301.391 91.1676C303.751 93.327 306.319 95.1054 309.165 96.6298L291.05 127.18H287.788V128.069H286.191V129.784H368.854V128.069H367.258V127.18H363.996L345.95 96.6933C348.379 95.423 350.6 93.8987 352.683 92.1203L355.598 94.9784C354.973 95.4865 354.557 96.2487 354.557 97.0743C354.557 98.5987 355.875 99.8054 357.541 99.8054C359.207 99.8054 360.525 98.5987 360.525 97.0743C360.525 95.55 359.207 94.3433 357.541 94.3433C356.916 94.3433 356.292 94.5338 355.806 94.8514L352.821 91.9933C353.099 91.8027 353.307 91.5487 353.585 91.3581C356.708 88.5 359.137 85.2608 360.942 81.7676L364.204 83.1649C364.135 83.3554 364.135 83.6095 364.135 83.8635C364.135 85.3879 365.453 86.5946 367.119 86.5946C368.785 86.5946 370.104 85.3879 370.104 83.8635C370.104 82.3392 368.785 81.1324 367.119 81.1324C365.8 81.1324 364.759 81.8946 364.343 82.9108L361.15 81.577C363.163 77.5757 364.273 73.2568 364.412 68.7473L367.952 68.8743C368.021 70.3352 369.34 71.5419 370.936 71.5419C372.602 71.5419 373.921 70.3351 373.921 68.8108C374.06 67.096 372.672 65.8257 371.006 65.8257ZM363.579 67.2865C363.579 67.6041 363.579 67.9216 363.579 68.1757L353.238 67.8581C353.238 67.6676 353.238 67.477 353.238 67.223C353.238 64.4284 352.683 61.7608 351.711 59.2838L361.428 55.9811C362.816 59.6014 363.579 63.4122 363.579 67.2865ZM352.683 67.9216L329.57 67.223C329.57 67.096 329.57 66.9689 329.501 66.8419L351.156 59.5378C352.127 61.9514 352.613 64.6189 352.613 67.35C352.683 67.477 352.683 67.6676 352.683 67.9216ZM302.433 66.7149L325.545 67.4135C325.545 67.5406 325.545 67.6676 325.614 67.7946L303.959 75.0987C302.988 72.6851 302.502 70.0176 302.502 67.2865C302.433 67.096 302.433 66.9054 302.433 66.7149ZM329.154 66.1433L346.02 51.6622C348.171 53.8216 349.976 56.3622 351.086 59.1568L329.432 66.4608C329.362 66.3973 329.223 66.2703 329.154 66.1433ZM328.946 65.9527C328.807 65.8257 328.668 65.7622 328.529 65.6987L337.274 46.1365C340.537 47.4068 343.382 49.2487 345.811 51.5351L328.946 65.9527ZM328.182 65.5081C328.043 65.4446 327.905 65.4446 327.835 65.4446L328.599 44.2946C331.583 44.4216 334.359 44.9933 336.997 45.946L328.182 65.5081ZM327.488 65.4446C327.349 65.4446 327.211 65.4446 327.072 65.5081L319.368 45.5649C321.936 44.7392 324.712 44.2946 327.558 44.2946C327.766 44.2946 327.974 44.2946 328.182 44.2946L327.488 65.4446ZM326.725 65.6351C326.586 65.6987 326.447 65.7622 326.308 65.8892L310.553 50.4554C312.982 48.3595 315.897 46.7716 319.09 45.6919L326.725 65.6351ZM326.1 66.0797C326.031 66.2068 325.892 66.2703 325.822 66.3973L304.862 57.5054C306.18 54.9014 308.054 52.5514 310.275 50.646L326.1 66.0797ZM325.684 66.6514C325.614 66.7784 325.614 66.9054 325.545 67.096L302.433 66.3973C302.571 63.3487 303.335 60.427 304.654 57.823L325.684 66.6514ZM325.753 68.0487C325.822 68.1757 325.892 68.2392 325.961 68.3662L325.822 68.6203L309.165 82.9108C306.944 80.7514 305.209 78.2108 304.098 75.4162L325.753 68.0487ZM325.267 69.446L314.787 87.1027C312.774 86.023 310.9 84.6892 309.304 83.1014L325.267 69.446ZM326.447 68.8108C326.516 68.8743 326.586 68.8743 326.655 68.9379L317.841 88.5C317.008 88.1825 316.175 87.8014 315.411 87.4203L326.447 68.8108ZM326.933 69.0649C327.072 69.1284 327.211 69.1284 327.28 69.1284L326.516 90.2784C323.532 90.1514 320.756 89.5798 318.118 88.627L326.933 69.0649ZM327.558 90.2784C327.349 90.2784 327.141 90.2784 326.933 90.2784L327.696 69.1284C327.835 69.1284 327.974 69.1284 328.113 69.0649L335.817 89.0081C333.179 89.8338 330.403 90.2784 327.558 90.2784ZM328.39 69.0014C328.529 68.9379 328.599 68.8743 328.737 68.8108L339.773 87.4203C338.593 87.9919 337.413 88.5 336.095 88.9446L328.39 69.0014ZM330.264 70.1446L344.631 84.1811C343.313 85.3243 341.855 86.277 340.328 87.1027L330.264 70.1446ZM329.64 69.0649L329.223 68.3662C329.293 68.3027 329.293 68.2392 329.362 68.1757L350.323 77.0676C349.004 79.6716 347.13 82.0216 344.909 83.927L329.64 69.0649ZM329.432 67.9216C329.501 67.7946 329.501 67.6676 329.57 67.477L352.683 68.1757C352.544 71.2243 351.78 74.146 350.462 76.75L329.432 67.9216ZM317.702 88.9446L313.746 97.7095C312.566 97.2649 311.386 96.7568 310.206 96.1852L315.134 87.8649C315.967 88.246 316.8 88.627 317.702 88.9446ZM317.98 89.0716C320.617 90.0879 323.532 90.6595 326.586 90.723L326.239 100.187C322.005 100.059 317.91 99.2338 314.023 97.8365L317.98 89.0716ZM326.933 90.723C327.141 90.723 327.349 90.723 327.627 90.723C330.542 90.723 333.388 90.2784 335.956 89.4527L339.426 98.4081C335.678 99.6149 331.722 100.187 327.627 100.187C327.28 100.187 326.933 100.187 326.655 100.187L326.933 90.723ZM336.233 89.3892C337.552 88.9446 338.801 88.4365 339.981 87.8649L344.909 96.1852C343.243 97.0108 341.508 97.773 339.704 98.3446L336.233 89.3892ZM361.289 55.7906L351.572 59.0933C350.392 56.2351 348.588 53.6311 346.367 51.4081L353.932 44.9297C357.194 48.1054 359.693 51.7892 361.289 55.7906ZM353.03 44.0405C353.238 44.2311 353.515 44.4851 353.724 44.6757L346.158 51.1541C343.729 48.8041 340.745 46.8987 337.483 45.6284L341.439 36.8635C345.673 38.5149 349.629 40.9284 353.03 44.0405ZM341.092 36.7365L337.136 45.5014C334.498 44.4851 331.583 43.9135 328.529 43.85L328.876 34.3865C333.11 34.5135 337.274 35.3392 341.092 36.7365ZM327.558 34.3865C327.905 34.3865 328.252 34.3865 328.529 34.3865L328.182 43.85C327.974 43.85 327.766 43.85 327.488 43.85C324.573 43.85 321.727 44.2946 319.159 45.1203L315.689 36.1649C319.506 35.0216 323.463 34.3865 327.558 34.3865ZM315.411 36.2919L318.882 45.2473C315.62 46.327 312.635 47.9784 310.137 50.0743L303.057 43.1514C306.736 40.1027 310.9 37.7527 315.411 36.2919ZM302.155 44.0405C302.363 43.85 302.641 43.596 302.849 43.4054L309.928 50.3284C307.638 52.2973 305.764 54.7108 304.376 57.3784L294.937 53.377C296.672 49.9473 299.101 46.7716 302.155 44.0405ZM294.798 53.6311L304.237 57.6324C302.918 60.3 302.085 63.2851 301.947 66.3973L291.605 66.0797C291.813 61.6973 292.854 57.5054 294.798 53.6311ZM291.605 67.2865C291.605 66.9689 291.605 66.6514 291.605 66.3973L301.947 66.7149C301.947 66.9054 301.947 67.096 301.947 67.35C301.947 70.1446 302.502 72.8122 303.474 75.2892L293.757 78.5919C292.299 74.9716 291.605 71.2243 291.605 67.2865ZM293.826 78.846L303.543 75.5433C304.723 78.4014 306.528 81.0054 308.748 83.2284L301.183 89.7068C297.921 86.5311 295.492 82.8473 293.826 78.846ZM302.155 90.596C301.947 90.4054 301.669 90.1514 301.461 89.9608L309.026 83.4825C310.692 85.0703 312.566 86.4676 314.648 87.5473L309.72 95.9311C306.944 94.4068 304.376 92.6919 302.155 90.596ZM363.302 127.18H291.813L309.72 96.9473C310.9 97.5189 312.08 98.0906 313.329 98.5352L312.08 101.33C311.802 101.266 311.455 101.203 311.178 101.203C309.512 101.203 308.193 102.409 308.193 103.934C308.193 105.458 309.512 106.665 311.178 106.665C312.843 106.665 314.162 105.458 314.162 103.934C314.162 102.791 313.399 101.838 312.358 101.393L313.607 98.5987C317.563 100.059 321.797 100.885 326.169 101.012L326.1 103.87C324.504 103.934 323.185 105.141 323.185 106.601C323.185 108.126 324.504 109.332 326.169 109.332C327.835 109.332 329.154 108.126 329.154 106.601C329.154 105.141 327.974 103.997 326.447 103.87L326.516 101.012C326.863 101.012 327.211 101.012 327.558 101.012C331.722 101.012 335.817 100.377 339.704 99.1703L340.814 101.965C339.773 102.409 339.079 103.362 339.079 104.442C339.079 105.966 340.398 107.173 342.063 107.173C343.729 107.173 345.048 105.966 345.048 104.442C345.048 102.918 343.729 101.711 342.063 101.711C341.716 101.711 341.369 101.774 341.092 101.838L340.051 99.0433C341.925 98.4081 343.729 97.7095 345.395 96.8203L363.302 127.18ZM345.464 95.8676L340.537 87.4838C342.133 86.6581 343.59 85.6419 344.978 84.4987L352.058 91.4216C350.045 93.1365 347.824 94.6608 345.464 95.8676ZM353.03 90.596C352.821 90.7865 352.544 91.0406 352.336 91.2311L345.256 84.3081C347.547 82.3392 349.42 79.9257 350.809 77.2581L360.248 81.2595C358.443 84.6892 356.014 87.8014 353.03 90.596ZM360.317 80.9419L350.878 76.9406C352.197 74.273 353.03 71.2879 353.168 68.1757L363.51 68.4933C363.371 72.8757 362.261 77.0676 360.317 80.9419Z" fill="#95A9A7"/>
<path d="M283.276 104.442H261.622V130.737H283.276V104.442Z" fill="#95A9A7"/>
</svg>
