<svg data-name="Layer 1" xmlns="http://www.w3.org/2000/svg" viewBox="0 0 768 96" height="96" width="768" preserveAspectRatio="xMinYMax meet" data-reactid="108"><defs data-reactid="109"><pattern id="a" data-name="2 3 - black" width="5" height="5" patternTransform="matrix(.5 0 0 -.5 359.2 185.8)" patternUnits="userSpaceOnUse" viewBox="0 0 5 5" data-reactid="110"><path fill="none" d="M0 0h5v5H0z" data-reactid="111"></path><path fill="none" d="M0 0h5v5H0z" data-reactid="112"></path><path fill="none" d="M0 0h5v5H0z" data-reactid="113"></path><path fill="none" d="M0 5h5V0H0v5z" data-reactid="114"></path><path d="M2 3H0v2h2V3z" data-reactid="115"></path></pattern><pattern id="b" data-name="SVGID 1" width="5" height="5" patternTransform="matrix(.5 0 0 -.5 416 51.8)" patternUnits="userSpaceOnUse" viewBox="0 0 5 5" data-reactid="116"><path fill="none" d="M0 0h5v5H0z" data-reactid="117"></path><path fill="none" d="M0 0h5v5H0z" data-reactid="118"></path><path fill="none" d="M0 0h5v5H0z" data-reactid="119"></path><path fill="none" d="M0 5h5V0H0v5z" data-reactid="120"></path><path d="M2 3H0v2h2V3z" data-reactid="121"></path></pattern><pattern id="c" data-name="2 3 - black-3" width="5" height="5" patternTransform="matrix(.5 0 0 -.5 359.3 185.8)" patternUnits="userSpaceOnUse" viewBox="0 0 5 5" data-reactid="122"><path fill="none" d="M0 0h5v5H0z" data-reactid="123"></path><path fill="none" d="M0 0h5v5H0z" data-reactid="124"></path><path fill="none" d="M0 0h5v5H0z" data-reactid="125"></path><path fill="none" d="M0 5h5V0H0v5z" data-reactid="126"></path><path d="M2 3H0v2h2V3z" data-reactid="127"></path></pattern></defs><path d="M737.59 26.59h-67.31a2.71 2.71 0 0 1 0-5.42h24.91a11.78 11.78 0 0 0 8.32-3.45 11.78 11.78 0 0 1 8.32-3.45h9.52A95.87 95.87 0 0 0 671.82.49H559.75A22.9 22.9 0 0 0 544 6.4a24.35 24.35 0 0 1-16.15 6.4h-50.36a42.36 42.36 0 0 0-29 10.83 44.16 44.16 0 0 1-29.55 11.36h-64.48a67.8 67.8 0 0 0-46.28 18.22c-12.85 12-30.42 18.71-48.69 18.71h-8.42a50.62 50.62 0 0 0-34.46 13.79l-12.79 11.28H768a96.09 96.09 0 0 0-30.41-70.4zm-99.06 5.91a8.37 8.37 0 1 1 8.41-8.38 8.37 8.37 0 0 1-8.37 8.37zm79.75 16.74h-55.14a2.46 2.46 0 0 1 0-4.92h7.53a15 15 0 0 0 10.68-4.43 15.09 15.09 0 0 1 10.68-4.43h26.24a6.89 6.89 0 0 1 .01 13.78z" fill="#1A3177" data-reactid="128"></path><path d="M756.19 85.18a72.86 72.86 0 0 0-51.25-21.19h-54.6v33H768zM454.4 74.84h-8.37V56.13a36.37 36.37 0 0 0 8.37-1v19.7zm133.42-39.39a61.85 61.85 0 0 1 44.31 18.32v21.56h-44.31V35.45zm-84.68-.49v6.89l-6.89-6.89h6.89zM282.59 96.99h-22.16a38 38 0 0 0 22.15-7.39v7.39z" data-reactid="129"></path><path fill="#fff" d="M413.54 15.76v4.43h-4.92V97h23.63V20.68h2.46v-4.92h-21.17zm56.61 59.08h-32.98L459.32 97h10.83V74.84z" data-reactid="130"></path><path fill="#fff" d="M454.4 44.81h15.75v30.04H454.4z" data-reactid="131"></path><path fill="#d6d6d6" d="M456.86 48.25h13.29v.98h-13.29zm0 2.96h13.29v.98h-13.29zm0 2.95h13.29v.98h-13.29zm0 2.96h13.29v.98h-13.29zm0 2.95h13.29v.98h-13.29zm0 2.96h13.29v.98h-13.29zm0 2.95h13.29v.98h-13.29zm0 2.95h13.29v.98h-13.29z" data-reactid="132"></path><path fill="#fff" d="M458.83 41.85h17.72v2.95h-17.72z" data-reactid="133"></path><path fill="#89DAC1" d="M458.83 41.85l9.35-9.35h8.37v9.35h-17.72z" data-reactid="134"></path><path fill="#5879DA" d="M503.14 41.85l-9.36-9.35h-17.23v9.35h26.59z" data-reactid="135"></path><path fill="#89DAC1" d="M481.97 38.9v-2.96h-2.96l2.96 2.96zm6.4 0v-2.96h-2.95l2.95 2.96zm6.4 0v-2.96h-2.96l2.96 2.96z" data-reactid="136"></path><path fill="#fff" d="M468.18 31.02h8.37v1.48h-8.37zm51.2 52.69l-27.07-27.09h27.07v27.09z" data-reactid="137"></path><path fill="#d6d6d6" d="M514.46 59.58h.98v3.45h-.98zm-3.94 0h.98v3.45h-.98zm-3.94 0h.98v3.45h-.98zm7.88 6.4h.98v3.45h-.98zm-3.94 0h.98v3.45h-.98zm-3.94 0h.98v3.45h-.98zm7.88 6.4h.98v3.45h-.98zm-6.89.49l-.49-.49h.49v.49zm3.94 2.96h-.5l-.49-.5v-2.95h.99v3.45z" data-reactid="138"></path><path fill="#5879DA" d="M334.28 68.93h10.34v3.94h-10.34zm0-6.89h10.34v3.94h-10.34zm0-6.89h10.34v3.94h-10.34zm0-6.9v3.94h11.81l-3.94-3.94h-7.87z" data-reactid="139"></path><path fill="#d6d6d6" d="M334.28 65.98h10.34v2.95h-10.34zm0-6.89h10.34v2.95h-10.34zm0-6.9h8.37v2.95h-8.37z" data-reactid="140"></path><path fill="#89DAC1" d="M334.28 68.93v3.94H307.2l3.94-3.94h23.14zm0-6.89v3.94h-21.66l3.93-3.94h17.73zm0-6.89v3.94h-17.23l3.93-3.94h13.3zm0-6.9v3.94h-12.31l3.94-3.94h8.37z" data-reactid="141"></path><path fill="#fff" d="M316.55 65.98h17.72v2.95h-17.72zm4.43-6.89h13.29v2.95h-13.29zm4.93-6.9h8.37v2.95h-8.37zm312.12 42.84l-19.69-19.7h-4.93V56.62h24.62v38.41z" data-reactid="142"></path><path fill="#5879DA" d="M638.03 52.69v3.93h12.8l-3.94-3.93h-8.86z" data-reactid="143"></path><path fill="#89DAC1" d="M638.03 52.69v3.93h-24.62l4.14-3.93h20.48z" data-reactid="144"></path><path fill="#d6d6d6" d="M635.08 59.09h.98v3.45h-.98zm-3.94 0h.98v3.45h-.98zm-3.94 0h.98v3.45h-.98zm-3.94 0h.98v3.45h-.98zm-3.94 0h.98v3.45h-.98zm-3.94 0h.98v3.45h-.98zm19.7 6.4h.98v3.45h-.98zm-3.94 0h.98v3.45h-.98zm-3.94 0h.98v3.45h-.98zm-3.94 0h.98v3.45h-.98zm-3.94 0h.98v3.45h-.98zm-3.94 0h.98v3.45h-.98zm19.7 6.4h.98v3.45h-.98zm-3.94 0h.98v3.45h-.98zm-3.94 0h.98v3.45h-.98zm-3.94 0h.98v3.45h-.98zm-3.94 0h.98v3.45h-.98zm-3.94 0h.98v3.45h-.98zm-243.2 7.88h36.43V97h-36.43z" data-reactid="145"></path><path fill="url(#a)" d="M372.18 79.77h36.43V97h-36.43z" data-reactid="146"></path><path d="M372.19 15.75v23.64h-8.37v3h-12.31a6.89 6.89 0 0 0-6.89 6.89v47.71h27.57V42.34h15.75V-.01zm104.36 8.38h.98v6.89h-.98z" fill="#fff" data-reactid="147"></path><path fill="#5879DA" d="M477.54 24.13h2.95v.98h-2.95z" data-reactid="148"></path><path fill="#fff" d="M484.92 24.13h.98v6.89h-.98z" data-reactid="149"></path><path fill="#5879DA" d="M485.91 24.13h2.95v.98h-2.95z" data-reactid="150"></path><path fill="#fff" d="M492.8 24.13h.98v6.89h-.98z" data-reactid="151"></path><path fill="#5879DA" d="M493.78 24.13h2.95v.98h-2.95z" data-reactid="152"></path><path fill="#d6d6d6" d="M368.74 82.23h.98v3.45h-.98zm-3.94 0h.98v3.45h-.98zm-3.94 0h.98v3.45h-.98zm7.88 6.4h.98v3.45h-.98zm-3.94 0h.98v3.45h-.98zm-3.94 0h.98v3.45h-.98zm76.31-13.79h8.86V20.68h-2.46v-4.92h-8.86v4.92h-2.46V97h27.07l-22.15-22.16z" data-reactid="153"></path><path fill="url(#b)" d="M296.86 72.87h20.18V97h-20.18z" data-reactid="154"></path><path fill="#d6d6d6" d="M296.86 72.87V97h47.76V72.87h-47.76zM413.54 8.86h.98v6.89h-.98zm2.95 0h.98v6.89h-.98z" data-reactid="155"></path><path d="M514.46 6.4a6.59 6.59 0 0 0-6.4 6.4h12.8a6.59 6.59 0 0 0-6.4-6.4z" fill="#89DAC1" data-reactid="156"></path><path d="M514.46 6.4v6.4h6.4a6.59 6.59 0 0 0-6.4-6.4z" fill="#5879DA" data-reactid="157"></path><path fill="#fff" d="M515.45 54.66V14.28h-.99V12.8h-9.84v1.48h-1.48v40.38h12.31z" data-reactid="158"></path><path fill="#d6d6d6" d="M512.49 16.74h.98v3.45h-.98zm0 5.42h.98v3.45h-.98zm0 5.41h.98v3.45h-.98zm0 5.42h.98v3.45h-.98zm0 5.42h.98v3.45h-.98zm-2.46-21.67h.98v3.45h-.98zm0 5.42h.98v3.45h-.98zm0 5.41h.98v3.45h-.98zm0 5.42h.98v3.45h-.98zm0 5.42h.98v3.45h-.98zm-2.46-21.67h.98v3.45h-.98zm0 5.42h.98v3.45h-.98zm0 5.41h.98v3.45h-.98zm0 5.42h.98v3.45h-.98zm0 5.42h.98v3.45h-.98zm-2.46-21.67h.98v3.45h-.98zm0 5.42h.98v3.45h-.98zm0 5.41h.98v3.45h-.98zm0 5.42h.98v3.45h-.98zm0 5.42h.98v3.45h-.98z" data-reactid="159"></path><path fill="#fff" d="M562.22 18.71h12.8v49.24h-12.8z" data-reactid="160"></path><path d="M587.82 67.99h-12.8V18.71a12.8 12.8 0 0 1 12.8 12.8v36.48z" fill="#d6d6d6" data-reactid="161"></path><path fill="#fff" d="M552.86 75.34h30.03V97h-30.03z" data-reactid="162"></path><path fill="#d6d6d6" d="M582.89 75.34h35.45V97h-35.45z" data-reactid="163"></path><path d="M590.28 81.73a1.48 1.48 0 0 0-1.48 1.48v13.78h3V83.21a1.48 1.48 0 0 0-1.52-1.48zm6.89 0a1.48 1.48 0 0 0-1.48 1.48v13.78h3V83.21a1.48 1.48 0 0 0-1.52-1.48zm6.89 0a1.48 1.48 0 0 0-1.48 1.48v13.78h3V83.21a1.48 1.48 0 0 0-1.52-1.48zm6.88 0a1.48 1.48 0 0 0-1.48 1.48v13.78h3V83.21a1.48 1.48 0 0 0-1.52-1.48z" fill="#5879DA" data-reactid="164"></path><path d="M563.69 81.73a1.48 1.48 0 0 0-1.48 1.48v13.78h3V83.21a1.48 1.48 0 0 0-1.52-1.48zm6.9 0a1.48 1.48 0 0 0-1.48 1.48v13.78h3V83.21a1.48 1.48 0 0 0-1.52-1.48zm6.89 0a1.48 1.48 0 0 0-1.48 1.48v13.78h3V83.21a1.48 1.48 0 0 0-1.52-1.48z" fill="#d6d6d6" data-reactid="165"></path><path d="M357.94 79.76v-2h2.46a8.56 8.56 0 0 0 5.91-2.46l1-1h4.92v5.42h-14.29z" fill="#89DAC1" data-reactid="166"></path><path d="M408.62 79.76v-2h-2a9.44 9.44 0 0 1-6.4-2.46l-1-1h-27.03v5.42h36.43zm174.32-4.43h35.4a24.7 24.7 0 0 0-17.72-7.34 25 25 0 0 0-17.68 7.34z" fill="#5879DA" data-reactid="167"></path><path fill="#d6d6d6" d="M640 97l-21.66-21.67V97H640zm-77.78-63.52h12.8v.98h-12.8zm0 2.96h12.8v.98h-12.8zm0 2.95h12.8v.98h-12.8zm0 2.96h12.8v.98h-12.8zm0 2.95h12.8v.98h-12.8zm0 2.95h12.8v.98h-12.8zm0 2.96h12.8v.98h-12.8zm0 2.95h12.8v.98h-12.8z" data-reactid="168"></path><path fill="#5879DA" d="M575.02 33.48h12.8v.98h-12.8zm0 2.96h12.8v.98h-12.8zm0 2.95h12.8v.98h-12.8zm0 2.96h12.8v.98h-12.8zm0 2.95h12.8v.98h-12.8zm0 2.95h12.8v.98h-12.8zm0 2.96h12.8v.98h-12.8zm0 2.95h12.8v.98h-12.8z" data-reactid="169"></path><path d="M575.08 18.72v12.8h12.8a12.84 12.84 0 0 0-12.8-12.8z" transform="translate(-.1)" fill="url(#c)" data-reactid="170"></path><path fill="#d6d6d6" d="M657.23 79.77h17.23V97h-17.23z" data-reactid="171"></path><path fill="url(#a)" d="M657.23 79.77h17.23V97h-17.23z" data-reactid="172"></path><path fill="#89DAC1" d="M657.23 79.77h-12.8l6.4-6.41 6.4 6.41z" data-reactid="173"></path><path fill="#5879DA" d="M668.06 73.36h-17.23l6.4 6.41h17.23l-6.4-6.41zM425.35 88.13v1a2.49 2.49 0 0 1-.84 1.62l-1 1-.15.15v-3.77h-1v8.86h1v-2.7a3.1 3.1 0 0 1 .84-1.87l1-1a3.45 3.45 0 0 0 1.13-2.31v-1h-1zm37.91 3.45h.98V97h-.98zm-111.75 0h.98V97h-.98z" data-reactid="174"></path><path fill="#d6d6d6" d="M476.55 31.02h17.23v1.48h-17.23z" data-reactid="175"></path><path d="M241.23 96.99a20.89 20.89 0 0 1-15-6.35 26.49 26.49 0 0 0-18.46-7.93h-18.72a14.05 14.05 0 0 1-10.34-3.94 15.65 15.65 0 0 0-10.83-4.43h-39.39a20.24 20.24 0 0 1-14.28-5.91 20.24 20.24 0 0 0-14.27-5.9H49.23a35.59 35.59 0 0 0-25.11 10.34L0 96.99h241.23z" data-reactid="176"></path><path d="M638.52 13.29a10.83 10.83 0 1 0 10.83 10.83 10.83 10.83 0 0 0-10.83-10.83zm0 19.2a8.37 8.37 0 1 1 8.42-8.37 8.37 8.37 0 0 1-8.37 8.37z" fill="#1A3177" data-reactid="177"></path><path fill="#5879DA" d="M318.52 74.35v15.76h.99V75.33l-.99-.98zm3.94 3.94v11.82h.99V79.27l-.99-.98zm3.94 3.94v7.88h.98v-6.9l-.98-.98zm3.94 3.94v3.94h.98v-2.96l-.98-.98z" data-reactid="178"></path><path d="M296.86 72.87h-8.76a5.5 5.5 0 0 0-5.51 5.5v18.62h14.28V72.87z" fill="#fff" data-reactid="179"></path><path fill="#5879DA" d="M337.23 74.35h.98v15.76h-.98zm3.45 0h.98v15.76h-.98zm94.03-50.72h3.45v.98h-3.45zm5.41 0h3.45v.98h-3.45zm-5.41 2.96h3.45v.98h-3.45zm5.41 0h3.45v.98h-3.45zm-5.41 2.95h3.45v.98h-3.45zm5.41 0h3.45v.98h-3.45zm-5.41 2.96h3.45v.98h-3.45zm5.41 0h3.45v.98h-3.45zm-5.41 2.95h3.45v.98h-3.45zm5.41 0h3.45v.98h-3.45zm-5.41 2.96h3.45v.98h-3.45zm5.41 0h3.45v.98h-3.45zm-5.41 2.95h3.45v.98h-3.45zm5.41 0h3.45v.98h-3.45zm-5.41 2.95h3.45v.98h-3.45zm5.41 0h3.45v.98h-3.45zm-5.41 2.96h3.45v.98h-3.45zm5.41 0h3.45v.98h-3.45zm-5.41 2.95h3.45v.98h-3.45zm5.41 0h3.45v.98h-3.45zm-5.41 2.96h3.45v.98h-3.45zm5.41 0h3.45v.98h-3.45zm-5.41 2.95h3.45v.98h-3.45zm5.41 0h3.45v.98h-3.45zm-5.41 2.96h3.45v.98h-3.45zm5.41 0h3.45v.98h-3.45zm-5.41 2.95h3.45v.98h-3.45zm5.41 0h3.45v.98h-3.45zm-5.41 2.95h3.45v.98h-3.45zm5.41 0h3.45v.98h-3.45zm-5.41 2.96h3.45v.98h-3.45zm5.41 0h3.45v.98h-3.45zm-5.41 2.95h3.45v.98h-3.45zm5.41 0h3.45v.98h-3.45zm112.74-2.95h9.35v7.39h-9.35z" data-reactid="180"></path><path d="M600.62 67.99h-38.4v7.39h20.72a25 25 0 0 1 17.68-7.39z" fill="#89DAC1" data-reactid="181"></path><path fill="#d6d6d6" d="M657.23 85.18h-6.4V56.62h-12.8V97h19.2V85.18z" data-reactid="182"></path><path fill="#5879DA" d="M647.88 59.09h.98v3.45h-.98zm-3.94 0h.98v3.45h-.98zm-3.94 0h.98v3.45H640zm7.88 6.4h.98v3.45h-.98zm-3.94 0h.98v3.45h-.98zm-3.94 0h.98v3.45H640zm7.88 6.4h.98v3.45h-.98zm-3.94 0h.98v3.45h-.98zm-3.94 0h.98v3.45H640z" data-reactid="183"></path><path d="M406.65 77.79h2V56.13h-5.91v20.86a10.11 10.11 0 0 0 3.91.8z" data-reactid="184"></path><path d="M400.25 75.33a8.15 8.15 0 0 0 2.12 1.48h.34V-.01h-14.77v42.35h-15.75v32h27.08zm-48.74-29.54h20.68v.98h-20.68zm0 2.96h20.68v.98h-20.68zm0 2.95h20.68v.98h-20.68zm0 2.95h20.68v.98h-20.68zm0 2.96h20.68v.98h-20.68zm0 2.95h20.68v.98h-20.68zm0 2.96h20.68v.98h-20.68zm0 2.95h20.68v.98h-20.68z" fill="#d6d6d6" data-reactid="185"></path><path fill="#5879DA" d="M372.18 45.79h16.74v.98h-16.74zm0 2.96h16.74v.98h-16.74zm0 2.95h16.74v.98h-16.74zm0 2.95h16.74v.98h-16.74zm0 2.96h16.74v.98h-16.74zm0 2.95h16.74v.98h-16.74zm0 2.96h16.74v.98h-16.74zm0 2.95h16.74v.98h-16.74zM391.88 0h.98v67.46h-.98zm2.95 0h.98v67.46h-.98zm2.95 0h.98v67.46h-.98z" data-reactid="186"></path><path fill="#fff" d="M317.05 72.87h17.23v17.24l-17.23-17.24z" data-reactid="187"></path><path fill="#d6d6d6" d="M319.51 75.33v-.98h-.99l.99.98zm3.94 3.94v-4.92h-.99v3.94l.99.98zm3.93 3.94v-8.86h-.98v7.88l.98.98zm3.94 3.94v-12.8h-.98v11.82l.98.98z" data-reactid="188"></path><path d="M552.86 35.45h9.35v32.5h-9.35z" data-reactid="189"></path><path fill="#d6d6d6" d="M522.83 14.28V12.8h-8.37v1.48h.99v39.39l-8.87-8.86h-3.44v-2.96h-26.59v2.96h-6.4V97h49.23V83.71l-27.07-27.09h32V14.28h-1.48z" data-reactid="190"></path><path fill="#5879DA" d="M521.85 16.74h.98v3.45h-.98zm0 5.42h.98v3.45h-.98zm-2.47-5.42h.98v3.45h-.98zm0 5.42h.98v3.45h-.98zm-2.46-5.42h.98v3.45h-.98zm0 5.42h.98v3.45h-.98zm-46.77 26.09h36.43v.98h-36.43zm0 2.96h36.43v.98h-36.43zm0 2.95h36.43v.98h-36.43zm0 2.96h22.15v.98h-22.15zm0 2.95h22.15v.98h-22.15zm0 2.96h22.15v.98h-22.15zm0 2.95h22.15v.98h-22.15zm0 2.95h22.15v.98h-22.15z" data-reactid="191"></path><path d="M504.27 78.09a1 1 0 0 0-1.62.69v5.42l-6.25-6.11a1 1 0 0 0-1.62.69v5.42l-6.25-6.11a1 1 0 0 0-1.62.69v5.42l-6.27-6.11a1 1 0 0 0-1.62.69v18.21h31.51V84.2z" fill="#fff" data-reactid="192"></path><path fill="#d6d6d6" d="M480.98 87.15h3.45v.98h-3.45zm5.42 0h3.45v.98h-3.45zm5.42 0h3.45v.98h-3.45zm5.41 0h3.45v.98h-3.45zm-16.25 2.96h3.45v.98h-3.45zm5.42 0h3.45v.98h-3.45zm5.42 0h3.45v.98h-3.45zm5.41 0h3.45v.98h-3.45zm-16.25 2.95h3.45v.98h-3.45zm5.42 0h3.45v.98h-3.45zm5.42 0h3.45v.98h-3.45zm5.41 0h3.45v.98h-3.45z" data-reactid="193"></path><path fill="#5879DA" d="M513.48 87.15h3.45v.98h-3.45zm0 2.96h3.45v.98h-3.45zm0 2.95h3.45v.98h-3.45z" data-reactid="194"></path><path fill="#d6d6d6" d="M502.65 72.38h.98v3.45h-.98zm-3.94 0h.98v3.45h-.98zm-3.94 0h.98v3.45h-.98z" data-reactid="195"></path><path fill="#5879DA" d="M506.58 72.38h.98v3.45h-.98zm-3.93 0h.98v3.45h-.98zm-3.94 0h.98v3.45h-.98zm-3.94 0h.98v3.45h-.98z" data-reactid="196"></path><path fill="#d6d6d6" d="M498.71 65.98h.98v3.45h-.98zm-3.94 0h.98v3.45h-.98z" data-reactid="197"></path><path fill="#5879DA" d="M498.71 65.98h.98v3.45h-.98zm-3.94 0h.98v3.45h-.98zm0-6.4v3.44h.98v-2.95l-.49-.49h-.49z" data-reactid="198"></path><path fill="#d6d6d6" d="M502.65 59.58h.98v3.45h-.98zm-3.94 0h.98v3.45h-.98zm4.92 9.85l-.98-.99v-2.46h.98v3.45z" data-reactid="199"></path><path fill="#5879DA" d="M511.51 75.83h-.99v-.99l.99.99z" data-reactid="200"></path><path fill="url(#a)" d="M296.86 72.87h20.18V97h-20.18z" data-reactid="201"></path><path fill="#fff" d="M657.23 79.77h-12.8l12.8 12.8v-12.8z" data-reactid="202"></path><path fill="#89DAC1" d="M657.23 79.77h-12.8l6.4-6.41 6.4 6.41z" data-reactid="203"></path><path fill="#d6d6d6" d="M654.28 81.74h.98v3.45h-.98zm-3.94 0h.98v3.45h-.98z" data-reactid="204"></path><path d="M636.55 96.99a13.32 13.32 0 0 0 8.86-3.45 13.78 13.78 0 0 1 9.85-3.94h9.85a8.78 8.78 0 0 0 5.91-2.46 13.17 13.17 0 0 1 4.45-2.46v12.31h-38.92z" data-reactid="205"></path><path fill="#5879DA" d="M503.63 69.43h-.98v-2.47l.98.99v1.48z" data-reactid="206"></path><path d="M353.72 91.58h-4.92a1.74 1.74 0 0 1-1.72-1.72 1.74 1.74 0 0 1 1.72-1.72h.54a1.72 1.72 0 0 0 1.18-.49 1.72 1.72 0 0 1 1.18-.49h2a2.21 2.21 0 0 1 2.22 2.2 2.21 2.21 0 0 1-2.2 2.22zm63.76-5.17a1.74 1.74 0 0 1 1.72-1.72 3 3 0 0 0 2.12-.89l.1-.1a3.31 3.31 0 0 1 2.36-1h3.79a2.73 2.73 0 0 1 2.71 2.71 2.73 2.73 0 0 1-2.71 2.71h-8.37a1.74 1.74 0 0 1-1.72-1.71zm43.57 5.17h5.66a1.48 1.48 0 0 0 1.48-1.48 1.48 1.48 0 0 0-1.48-1.48h-.44a2.42 2.42 0 0 1-1.77-.74 2.5 2.5 0 0 0-1.77-.74h-1.67a2.17 2.17 0 0 0-2.17 2.17 2.14 2.14 0 0 0 2.05 2.27h.11z" fill="#89DAC1" data-reactid="207"></path><path fill="#d6d6d6" d="M495.75 60.07l-.49-.49h.49v.49z" data-reactid="208"></path><path d="M541.05 24.62h-11.82a9.81 9.81 0 0 0-9.85 9.78v62.59h21.66V24.62z" fill="#fff" data-reactid="209"></path><path fill="#d6d6d6" d="M527.75 28.56h.98v28.07h-.98zm3.45 0h.98v28.07h-.98zm4.43 31.02l-.98-.99V28.56h.98v31.02zm3.45 3.44l-.99-.98V28.56h.99v34.46z" data-reactid="210"></path><path fill="#d6d6d6" d="M552.86 75.33V24.62h-11.81V64.5l-7.88-7.88h-13.79V97h55.14l-21.66-21.67z" data-reactid="211"></path><path fill="#5879DA" d="M535.63 74.35h-.98V58.1l.98.99v15.26zm3.45 0h-.99v-12.8l.99.98v11.82zm-8.37-14.77h.98v3.45h-.98zm-3.94 0h.98v3.45h-.98zm-3.94 0h.98v3.45h-.98zm7.88 6.4h.98v3.45h-.98zm-3.94 0h.98v3.45h-.98zm-3.94 0h.98v3.45h-.98zm7.88 6.4h.98v3.45h-.98zm-3.94 0h.98v3.45h-.98zm-3.94 0h.98v3.45h-.98zm9.85 15.75v1a2.49 2.49 0 0 1-.84 1.62l-1 1-.15.15v-3.77h-1v8.86h1v-2.45a3.66 3.66 0 0 1 .84-2.12l1-1a3.45 3.45 0 0 0 1.13-2.31v-1h-1z" data-reactid="212"></path><path d="M524.8 86.46a1.7 1.7 0 0 1 1.72-1.67h.59a2 2 0 0 0 1.23-.49l1.08-1a1.84 1.84 0 0 1 1.23-.49h4.29a2.74 2.74 0 0 1 2.76 2.71 2.74 2.74 0 0 1-2.76 2.66h-8.32a1.79 1.79 0 0 1-1.82-1.72z" fill="#fff" data-reactid="213"></path><path fill="#5879DA" d="M544.49 91.58h.98V97h-.98z" data-reactid="214"></path><path d="M542.28 91.58h5.66a1.48 1.48 0 0 0 1.48-1.48 1.48 1.48 0 0 0-1.48-1.47h-.44a2.42 2.42 0 0 1-1.77-.74 2.5 2.5 0 0 0-1.77-.74h-1.67a2.17 2.17 0 0 0-2.17 2.17 2.14 2.14 0 0 0 2.05 2.22h.11z" fill="#fff" data-reactid="215"></path><path fill="#5879DA" d="M544.49 28.56h.98v45.79h-.98zm3.45 0h.98v45.79h-.98z" data-reactid="216"></path><path d="M638.58 8.38a15.76 15.76 0 1 0 15.75 15.76 15.76 15.76 0 0 0-15.75-15.76zm0 24.13a8.37 8.37 0 1 1 8.42-8.38 8.37 8.37 0 0 1-8.37 8.37z" transform="translate(-.1)" fill="url(#c)" data-reactid="217"></path></svg>